<svg width="89" height="30" viewBox="0 0 89 30" fill="none" xmlns="http://www.w3.org/2000/svg">
<path d="M20.4165 24.27L17.541 15L25.0735 9.27C26.9236 15.222 25.0735 20.73 20.4165 24.27ZM25.0735 9.27L22.1979 0H12.8897L15.7538 9.27H25.0735ZM12.8897 0H3.58153L0.71747 9.27H10.0142L12.8897 0ZM0.706014 9.27C-1.13844 15.222 0.706014 20.73 5.36298 24.27L8.22704 15L0.706014 9.27ZM5.36298 24.27L12.8897 30L20.4165 24.27L12.8897 18.54L5.36298 24.27Z" fill="#333333"/>
<path d="M38.8791 5.62201C38.2964 5.62179 37.7292 5.81924 37.2625 6.18481C36.7958 6.55038 36.4546 7.06442 36.29 7.65001L32.1715 22.506H34.8809L36.0895 18.21C36.0936 18.1878 36.105 18.1678 36.1218 18.1535C36.1385 18.1392 36.1596 18.1316 36.1812 18.132H41.6172C41.6385 18.1327 41.659 18.1407 41.6756 18.1548C41.6921 18.1689 41.7038 18.1883 41.7088 18.21L42.9003 22.506H45.604L41.474 7.65001C41.3075 7.06444 40.9651 6.55078 40.4975 6.1854C40.03 5.82002 39.4624 5.62243 38.8791 5.62201ZM41.0329 15.978C41.024 15.9897 41.0127 15.999 40.9997 16.0052C40.9868 16.0115 40.9727 16.0145 40.9585 16.014H36.8056C36.7913 16.0145 36.7772 16.0115 36.7643 16.0052C36.7513 15.999 36.74 15.9897 36.7311 15.978C36.7229 15.9646 36.7186 15.9489 36.7186 15.933C36.7186 15.9171 36.7229 15.9015 36.7311 15.888L38.7875 8.40001C38.7925 8.37829 38.8042 8.35889 38.8207 8.3448C38.8373 8.33071 38.8578 8.3227 38.8791 8.32201C38.8974 8.32617 38.9141 8.33573 38.9273 8.34956C38.9405 8.36339 38.9496 8.3809 38.9536 8.40001L41.0272 15.894C41.0382 15.9205 41.0403 15.9502 41.0329 15.978ZM53.6348 11.856H56.2354V22.506H54.1847L53.9097 21.6C53.9058 21.5834 53.898 21.5682 53.887 21.5556C53.876 21.543 53.8621 21.5335 53.8467 21.528C53.8192 21.5163 53.7884 21.5163 53.7608 21.528C52.8008 22.2828 51.6386 22.7025 50.4385 22.728C49.9942 22.7304 49.5538 22.641 49.1425 22.4649C48.7313 22.2888 48.3572 22.0295 48.0417 21.7018C47.7262 21.3741 47.4755 20.9845 47.3039 20.5552C47.1323 20.1259 47.0432 19.6654 47.0417 19.2V11.856H49.6423V19.056C49.6453 19.4687 49.8043 19.8633 50.0846 20.1535C50.3648 20.4436 50.7433 20.6056 51.1373 20.604C51.983 20.5622 52.809 20.3223 53.5546 19.902C53.5706 19.8956 53.5843 19.884 53.5936 19.8689C53.6029 19.8538 53.6073 19.8359 53.6061 19.818L53.6348 11.856ZM75.711 15.15V22.506H73.1104V15.306C73.1096 15.1025 73.0702 14.9011 72.9945 14.7136C72.9188 14.5262 72.8083 14.3563 72.6693 14.214C72.5309 14.0692 72.3665 13.9544 72.1857 13.8762C72.0048 13.7979 71.811 13.7578 71.6154 13.758C70.7679 13.8 69.94 14.0398 69.1924 14.46C69.1768 14.4687 69.1638 14.4817 69.1547 14.4975C69.1456 14.5134 69.1408 14.5315 69.1408 14.55V22.506H66.5402V5.84401H69.1408V12.528C69.1408 12.5465 69.1456 12.5646 69.1547 12.5805C69.1638 12.5963 69.1768 12.6093 69.1924 12.618C69.2067 12.6283 69.2237 12.6339 69.2411 12.6339C69.2584 12.6339 69.2754 12.6283 69.2897 12.618C70.1894 11.9991 71.2381 11.66 72.3142 11.64C73.2036 11.6431 74.056 12.0134 74.6865 12.6704C75.317 13.3275 75.6748 14.2184 75.6823 15.15H75.711ZM62.4389 11.856H64.0199V13.974H62.4389C62.4261 13.974 62.4135 13.9766 62.4016 13.9818C62.3898 13.9869 62.3791 13.9944 62.3701 14.0039C62.361 14.0134 62.3538 14.0246 62.3489 14.037C62.3441 14.0494 62.3415 14.0626 62.3415 14.076V19.8C62.3423 19.9087 62.3635 20.0163 62.4039 20.1164C62.4443 20.2166 62.5032 20.3074 62.5771 20.3837C62.651 20.4601 62.7386 20.5204 62.8348 20.5613C62.931 20.6022 63.0339 20.6228 63.1377 20.622C63.3783 20.622 63.7106 20.622 64.0199 20.58V22.5C63.507 22.661 62.9743 22.7419 62.4389 22.74C61.7284 22.7432 61.0456 22.4514 60.5399 21.9286C60.0343 21.4057 59.747 20.6942 59.741 19.95V14.076C59.7396 14.0494 59.7289 14.0243 59.7109 14.0055C59.6929 13.9867 59.669 13.9755 59.6436 13.974H58.0855V11.856H59.6665C59.6919 11.8546 59.7159 11.8434 59.7338 11.8245C59.7518 11.8057 59.7625 11.7806 59.7639 11.754V8.23801H62.3644V11.754C62.3638 11.7774 62.3709 11.8003 62.3844 11.8188C62.398 11.8374 62.4172 11.8505 62.4389 11.856ZM87.3448 7.98601C86.9092 7.26219 86.3057 6.66576 85.5905 6.25242C84.8753 5.83907 84.0718 5.62228 83.2549 5.62228C82.4381 5.62228 81.6345 5.83907 80.9193 6.25242C80.2041 6.66576 79.6006 7.26219 79.165 7.98601C78.1683 9.51601 77.6413 11.658 77.6413 14.178C77.5554 16.3669 78.0939 18.533 79.1879 20.4C79.6245 21.1225 80.2284 21.7176 80.9435 22.1299C81.6585 22.5423 82.4616 22.7585 83.2778 22.7585C84.0941 22.7585 84.8971 22.5423 85.6122 22.1299C86.3273 21.7176 86.9311 21.1225 87.3677 20.4C88.3701 18.864 88.8971 16.722 88.8971 14.208C88.8971 11.694 88.3701 9.51601 87.3677 7.98601H87.3448ZM85.2139 19.2C84.7099 20.166 84.0683 20.634 83.2778 20.634C82.4873 20.634 81.8515 20.142 81.3417 19.2C80.6602 17.6339 80.3404 15.9217 80.408 14.202C80.336 12.4723 80.656 10.7493 81.3417 9.17401C81.8458 8.21401 82.4873 7.74601 83.2721 7.74601C84.0568 7.74601 84.7041 8.21401 85.2082 9.17401C85.8904 10.742 86.2103 12.4563 86.1419 14.178C86.215 15.9052 85.897 17.6261 85.2139 19.2Z" fill="#333333"/>
</svg>
